<?xml version="1.0" standalone="no"?><svg data-noselect="" 
  viewBox="192.54893989867003 135.77580950673 354.96784299439 266" 
  width="354.96784299439" 
  height="266" 
  ref="svg_canvas" 
  preserveAspectRatio="none" 
  version="1.1" xmlns="http://www.w3.org/2000/svg" 
  style="background: #ffffff;">
    <defs></defs>
    <g id="shape_MPoNPQPSmw" class="brand_name"  ref="shape_MPoNPQPSmw" key="shape_MPoNPQPSmw" transform="translate(289.34678289306,63.0843251272) rotate(0,173.74782296574,205.51) scale(1,1)" style="cursor:move;display:inline;opacity:1;" filter="">
            <g style="display:inline"><svg xmlns="http://www.w3.org/2000/svg" version="1.1" xmlns:xlink="http://www.w3.org/1999/xlink" width="349.68" height="411.02" viewBox="0 0 349.68 411.02" preserveAspectRatio="none" data-parent="shape_MPoNPQPSmw"><rect fill="rgba(0,0,0,0)" width="121" height="68" x="57.17" y="171.51"></rect><g data-width="120.28568000000001" transform="translate(57.17, 0)"><path d="M3.43-38.13L11.49-38.13L11.49-15.26Q11.49-12.52 11.95-11.01Q12.41-9.49 13.49-8.40L13.49-8.40Q15.89-6.06 20.18-6.06L20.18-6.06Q22.93-6.06 24.95-7.00Q26.98-7.95 27.78-9.55L27.78-9.55Q28.59-11.15 28.59-15.26L28.59-15.26L28.59-38.13L36.70-38.13L36.70-15.66Q36.70-11.21 35.76-8.32Q34.82-5.43 32.87-3.66L32.87-3.66Q28.36 0.29 20.07 0.29L20.07 0.29Q11.21 0.29 7.15-3.60L7.15-3.60Q5.03-5.60 4.23-8.09Q3.43-10.58 3.43-15.09L3.43-15.09L3.43-38.13Z" transform="translate(0 225.51) " fill="#2853a5" stroke="#2853a5" stroke-width="0.095" data-glyph-w="40.19051" data-glyph-h="57.17000000000001" data-glyph-ascender="49.109030000000004" data-glyph-descender="-8.060970000000001"></path><path d="M3.89 0L3.89-38.13L20.07-38.13Q26.13-38.13 29.44-36.93L29.44-36.93Q35.56-34.70 37.62-28.76L37.62-28.76Q39.16-24.18 39.16-18.98L39.16-18.98Q39.16-13.84 37.68-9.26L37.68-9.26Q36.19-4.57 32.76-2.34L32.76-2.34Q30.59-0.97 27.98-0.49Q25.38 0 20.07 0L20.07 0L3.89 0ZM20.07-31.33L12.01-31.33L12.01-6.80L20.07-6.80Q25.38-6.80 27.44-9.15L27.44-9.15Q28.70-10.63 29.47-13.32Q30.24-16.01 30.24-19.04L30.24-19.04Q30.24-22.41 29.33-25.21Q28.41-28.01 26.93-29.39L26.93-29.39Q24.75-31.33 20.07-31.33L20.07-31.33Z" transform="translate(40.19051 225.51) " fill="#2853a5" stroke="#2853a5" stroke-width="0.095" data-glyph-w="40.93372" data-glyph-h="57.17000000000001" data-glyph-ascender="49.109030000000004" data-glyph-descender="-8.060970000000001"></path><path d="M25.04-13.32L12.01-13.32L12.01 0L3.89 0L3.89-38.13L22.93-38.13Q28.13-38.13 30.36-37.39L30.36-37.39Q34.13-36.13 36.30-32.19L36.30-32.19Q37.90-29.21 37.90-25.73L37.90-25.73Q37.90-22.81 36.85-20.21Q35.79-17.61 33.90-15.95L33.90-15.95Q32.19-14.46 30.27-13.89Q28.36-13.32 25.04-13.32L25.04-13.32ZM12.01-31.33L12.01-20.12L23.04-20.12Q26.01-20.12 27.21-21.04L27.21-21.04Q28.99-22.47 28.99-26.01L28.99-26.01Q28.99-29.84 26.30-30.93L26.30-30.93Q25.33-31.33 23.21-31.33L23.21-31.33L12.01-31.33Z" transform="translate(81.12423000000001 225.51) " fill="#2853a5" stroke="#2853a5" stroke-width="0.095" data-glyph-w="39.16145" data-glyph-h="57.17000000000001" data-glyph-ascender="49.109030000000004" data-glyph-descender="-8.060970000000001"></path></g></svg></g>
        </g><g id="shape_cJTn9EpmXM" class="brand_slogan"  ref="shape_cJTn9EpmXM" key="shape_cJTn9EpmXM" transform="translate(385.20354706386,253.91064512720004) rotate(0,77.891058794948,50.683679999999995) scale(1,1)" style="cursor:move;display:inline;opacity:1;" filter="">
            <g style="display:inline"><svg xmlns="http://www.w3.org/2000/svg" version="1.1" xmlns:xlink="http://www.w3.org/1999/xlink" width="108.36" height="101.36735999999999" viewBox="0 0 108.36 101.36735999999999" preserveAspectRatio="none" data-parent="shape_cJTn9EpmXM"><rect fill="rgba(0,0,0,0)" width="52" height="16" x="14.09" y="42.683679999999995"></rect><g data-width="51.25942" transform="translate(14.09, 0)"><path d="M5.66-9.86L9.43 0L7.76 0L6.82-2.56L2.55-2.56L1.61 0L0.01 0L3.79-9.86L5.66-9.86ZM3.04-3.92L6.31-3.92L4.68-8.37L3.04-3.92Z" transform="translate(0 55.683679999999995) " fill="#2853a5" stroke="#2853a5" stroke-width="0.023" data-glyph-w="9.4403" data-glyph-h="16.80937" data-glyph-ascender="13.41368" data-glyph-descender="-3.39569"></path><path d="M0.58-3.02L2.10-3.02Q2.23-2.14 2.84-1.65Q3.45-1.16 4.47-1.16L4.47-1.16Q5.40-1.16 5.90-1.56Q6.41-1.96 6.41-2.59L6.41-2.59Q6.41-3.64 4.95-4.03L4.95-4.03L3.17-4.47Q1.92-4.76 1.30-5.45Q0.68-6.13 0.68-7.16L0.68-7.16Q0.68-7.81 0.93-8.33Q1.18-8.86 1.63-9.24Q2.07-9.61 2.68-9.81Q3.28-10.02 4.00-10.02L4.00-10.02Q4.76-10.02 5.40-9.79Q6.04-9.57 6.52-9.16Q7.00-8.75 7.31-8.17Q7.62-7.59 7.71-6.90L7.71-6.90L6.19-6.90Q6.03-7.75 5.47-8.23Q4.92-8.71 3.99-8.71L3.99-8.71Q3.23-8.71 2.72-8.33Q2.21-7.95 2.21-7.28L2.21-7.28Q2.21-6.75 2.56-6.40Q2.92-6.06 3.59-5.89L3.59-5.89L5.38-5.44Q6.72-5.10 7.33-4.45Q7.95-3.79 7.95-2.73L7.95-2.73Q7.95-2.11 7.70-1.59Q7.45-1.06 7.00-0.68Q6.54-0.30 5.90-0.08Q5.26 0.14 4.47 0.14L4.47 0.14Q3.66 0.14 2.98-0.08Q2.30-0.31 1.79-0.73Q1.28-1.14 0.97-1.73Q0.65-2.31 0.58-3.02L0.58-3.02Z" transform="translate(9.4403 55.683679999999995) " fill="#2853a5" stroke="#2853a5" stroke-width="0.023" data-glyph-w="8.62308" data-glyph-h="16.80937" data-glyph-ascender="13.41368" data-glyph-descender="-3.39569"></path><path d="" transform="translate(18.063380000000002 55.683679999999995) " fill="#2853a5" stroke="#2853a5" stroke-width="0.023" data-glyph-w="5.60782" data-glyph-h="14.09" data-glyph-ascender="12.3992" data-glyph-descender="-1.6908"></path><path d="M0.31-8.51L0.31-9.86L8.61-9.86L8.61-8.51L5.24-8.51L5.24 0L3.69 0L3.69-8.51L0.31-8.51Z" transform="translate(23.671200000000002 55.683679999999995) " fill="#2853a5" stroke="#2853a5" stroke-width="0.023" data-glyph-w="8.91897" data-glyph-h="16.80937" data-glyph-ascender="13.41368" data-glyph-descender="-3.39569"></path><path d="M9.26-6.35L7.75-6.35Q7.54-7.45 6.83-8.04Q6.13-8.62 5.13-8.62L5.13-8.62Q4.54-8.62 4.03-8.41Q3.52-8.20 3.16-7.79Q2.79-7.38 2.59-6.79Q2.38-6.20 2.38-5.44L2.38-5.44L2.38-4.44Q2.38-3.68 2.59-3.08Q2.79-2.48 3.16-2.07Q3.52-1.66 4.03-1.45Q4.54-1.24 5.13-1.24L5.13-1.24Q6.13-1.24 6.83-1.82Q7.54-2.41 7.75-3.51L7.75-3.51L9.26-3.51Q9.14-2.65 8.78-1.97Q8.41-1.28 7.87-0.81Q7.33-0.34 6.62-0.08Q5.92 0.17 5.13 0.17L5.13 0.17Q4.20 0.17 3.40-0.15Q2.61-0.48 2.04-1.07Q1.47-1.66 1.14-2.51Q0.82-3.35 0.82-4.40L0.82-4.40L0.82-5.48Q0.82-6.52 1.14-7.36Q1.47-8.20 2.04-8.79Q2.61-9.38 3.40-9.71Q4.20-10.03 5.13-10.03L5.13-10.03Q5.95-10.03 6.65-9.78Q7.35-9.52 7.89-9.05Q8.43-8.57 8.79-7.88Q9.14-7.20 9.26-6.35L9.26-6.35Z" transform="translate(32.59017 55.683679999999995) " fill="#2853a5" stroke="#2853a5" stroke-width="0.023" data-glyph-w="9.83482" data-glyph-h="16.80937" data-glyph-ascender="13.41368" data-glyph-descender="-3.39569"></path><path d="M1.20 0L1.20-9.86L5.28-9.86Q5.93-9.86 6.49-9.63Q7.04-9.40 7.46-8.99Q7.88-8.58 8.11-8.03Q8.34-7.48 8.34-6.85L8.34-6.85Q8.34-6.21 8.11-5.66Q7.88-5.11 7.46-4.71Q7.04-4.31 6.49-4.08Q5.93-3.85 5.28-3.85L5.28-3.85L2.75-3.85L2.75 0L1.20 0ZM5.16-8.51L2.75-8.51L2.75-5.14L5.16-5.14Q5.52-5.14 5.83-5.27Q6.13-5.40 6.34-5.62Q6.55-5.85 6.67-6.16Q6.79-6.47 6.79-6.82L6.79-6.82Q6.79-7.54 6.34-8.02Q5.89-8.51 5.16-8.51L5.16-8.51Z" transform="translate(42.42499 55.683679999999995) " fill="#2853a5" stroke="#2853a5" stroke-width="0.023" data-glyph-w="8.83443" data-glyph-h="16.80937" data-glyph-ascender="13.41368" data-glyph-descender="-3.39569"></path></g></svg></g>
        </g><g id="shape_NRh2QGSYHd" class=""  ref="shape_NRh2QGSYHd" key="shape_NRh2QGSYHd" transform="translate(272.54893989867,216.68067900298) rotate(0,62.380579346796,52.095130503748) scale(1,1)" style="cursor:move;display:inline;opacity:1;" filter="">
            <g style="display:inline"><rect fill="rgba(0,0,0,0)" width="144.7611586935913" height="124.19026100749602" x="-10" y="-10"></rect><svg version="1.1" id="图层_1" xmlns="http://www.w3.org/2000/svg" xmlns:xlink="http://www.w3.org/1999/xlink" x="0px" y="0px" viewBox="0 0 186.8 156" style="enable-background:new 0 0 186.8 156;" xml:space="preserve" width="124.76115869359133" height="104.19026100749602" class="style-removed" preserveAspectRatio="none" data-parent="shape_NRh2QGSYHd">

<g>
	<path d="M162.5,123.8h-13.1h-0.1c-0.7,0.4-1.5,0.8-2.2,1.2c-0.2,0.1-0.4,0.2-0.6,0.3c-0.3,0.1-0.5,0.2-0.7,0.4
		c-6,2.9-12.6,4.6-19.5,5c-1.1,0.1-2.1,0.1-3.2,0.1c-17.1,0-32.3-8.2-42-20.8c-1.2-1.6-2.3-3.3-3.4-5h-8.7H52.5
		c-2.3,0-4.1,1.8-4.1,4.1c0,2.3,1.8,4.1,4.1,4.1h21.4c11,15.3,28.9,25.2,49.1,25.2c1.1,0,2.1,0,3.2-0.1V156
		c24.9-0.8,46.9-13.3,60.6-32.2H162.5z" fill="#2853a5" stroke-width="0"></path>
	<path d="M115.2,147.3c-17.3-1.9-32.7-10.2-43.8-22.5c-0.7-0.8-1.4-1.5-2-2.3h-9.6H45.1c-2.3,0-4.1,1.8-4.1,4.1
		s1.8,4.1,4.1,4.1h21.3c12.3,13.2,29.1,22.1,48,24.2c2.3,0.3,4.2-1.5,4.2-3.8C118.6,149.2,117.1,147.5,115.2,147.3z" fill="#2CBFE1" stroke-width="0"></path>
	<path d="M68.8,51.2c-0.5,0.9-0.9,1.9-1.3,2.9c-1.1,2.5,0.8,5.3,3.5,5.3l0,0c1.5,0,2.9-0.9,3.5-2.3
		c0.4-1,0.9-2,1.4-2.9c8.7-17.2,26.6-29,47.1-29c1.1,0,2.1,0,3.2,0.1c7,0.4,13.6,2.2,19.5,5c0.2,0.1,0.5,0.2,0.7,0.4
		c0.2,0.1,0.4,0.2,0.6,0.3c0.3,0.2,0.7,0.3,1,0.5h0h13.6h24.7C172.5,13,150.8,0.8,126.2,0v17.6c-1.1-0.1-2.1-0.1-3.2-0.1
		C99.3,17.5,78.7,31.2,68.8,51.2z" fill="#2853a5" stroke-width="0"></path>
	<path d="M46,42h8.5h8.8c0.6-1.1,1.3-2.1,2-3.1C76.6,22.2,95,10.6,116.2,8.6c2-0.2,3.4-1.8,3.4-3.8
		c0-2.3-1.9-4-4.2-3.8C92.3,3.2,72.2,15.7,59.5,33.7H46c-2.3,0-4.1,1.8-4.1,4.1v0C41.9,40.1,43.8,42,46,42z" fill="#2CBFE1" stroke-width="0"></path>
	<path d="M19.3,78c2.3,0,4.1-1.8,4.1-4.1s-1.8-4.1-4.1-4.1H4.1c-2.3,0-4.1,1.8-4.1,4.1S1.8,78,4.1,78H19.3z" fill="#2853a5" stroke-width="0"></path>
	<path d="M63.3,95.8h19.1c4.8,10.8,13.8,19.4,24.9,23.6c2.5,0.9,5.2-0.9,5.2-3.5v-0.1c0-1.6-1-3-2.4-3.5
		c-8.1-3.1-14.9-9-19.1-16.5c-0.5-0.8-0.9-1.6-1.3-2.5c-0.1-0.2-0.2-0.5-0.3-0.7c-0.3-0.7-0.6-1.4-0.8-2.1c-0.4-1-0.7-1.9-0.9-2.9
		h-2.8h-0.1H63.3c-2.3,0-4.1,1.8-4.1,4.1S61.1,95.8,63.3,95.8z" fill="#2853a5" stroke-width="0"></path>
	<path d="M37.8,105.1H27.5c-2.3,0-4.1,1.8-4.1,4.1c0,2.3,1.8,4.1,4.1,4.1h10.3c2.3,0,4.1-1.8,4.1-4.1
		C41.9,106.9,40.1,105.1,37.8,105.1z" fill="#2CBFE1" stroke-width="0"></path>
	<path d="M71.9,73.9c0-2.3-1.8-4.1-4.1-4.1H34c-2.3,0-4.1,1.8-4.1,4.1S31.7,78,34,78h33.9C70.1,78,71.9,76.2,71.9,73.9
		z" fill="#2853a5" stroke-width="0"></path>
	<path d="M50.8,91.7c0-2.3-1.8-4.1-4.1-4.1h-40c-2.3,0-4.1,1.8-4.1,4.1s1.8,4.1,4.1,4.1h40
		C48.9,95.8,50.8,94,50.8,91.7z" fill="#2853a5" stroke-width="0"></path>
	<path d="M27.5,59.4h25.3c1.8,0,3.3-1.1,3.9-2.8c0,0,0-0.1,0-0.1c0.9-2.6-1.1-5.3-3.9-5.3H27.5c-2.3,0-4.1,1.8-4.1,4.1
		v0C23.4,57.5,25.2,59.4,27.5,59.4z" fill="#2CBFE1" stroke-width="0"></path>
	<path d="M112.5,40.1c0-2.6-2.6-4.5-5.1-3.6c-15.5,5.8-26.8,20-28.5,37c-0.2,2.2,1.5,4.2,3.8,4.2h0.1
		c2,0,3.6-1.5,3.8-3.5c1.4-14,10.8-25.7,23.5-30.5c1.5-0.6,2.5-2,2.5-3.5V40.1z" fill="#2853a5" stroke-width="0"></path>
</g>
</svg></g>
        </g>
  </svg>